<?xml version="1.0" standalone="no"?>
<!DOCTYPE svg PUBLIC "-//W3C//DTD SVG 20010904//EN"
 "http://www.w3.org/TR/2001/REC-SVG-20010904/DTD/svg10.dtd">
<svg version="1.0" xmlns="http://www.w3.org/2000/svg"
 width="200.000000pt" height="200.000000pt" viewBox="0 0 200.000000 200.000000"
 preserveAspectRatio="xMidYMid meet">
<metadata>
Created by potrace 1.15, written by Peter Selinger 2001-2017
</metadata>
<g transform="translate(0.000000,200.000000) scale(0.100000,-0.100000)"
fill="#000000" stroke="none">
<path d="M1181 1493 c-89 -32 -165 -139 -146 -206 18 -63 43 -57 -254 -57
l-271 0 -32 -29 -33 -29 -3 -231 c-3 -260 1 -281 64 -307 52 -22 728 -16 762
6 46 30 52 64 52 274 0 192 0 196 21 196 11 0 32 -9 46 -20 31 -24 90 -26 121
-4 32 22 51 65 51 115 0 24 3 71 6 105 6 57 5 62 -27 104 -52 67 -114 95 -223
97 -62 2 -104 -3 -134 -14z m249 -24 c94 -41 140 -115 119 -192 l-10 -39 -22
20 c-72 65 -186 4 -175 -94 4 -34 4 -34 -38 -34 -24 0 -46 -5 -50 -11 -8 -14
-84 -48 -106 -49 -15 0 -16 4 -8 26 17 44 12 69 -21 93 -42 31 -73 102 -64
148 7 41 62 105 110 128 82 38 182 40 265 4z m-334 -285 c65 -50 43 -98 -97
-214 l-108 -91 -188 147 c-103 81 -192 151 -198 156 -24 22 35 28 288 28 l268
0 35 -26z m-401 -169 c102 -80 190 -145 196 -145 6 0 60 41 119 90 72 60 116
90 133 90 13 0 51 13 83 30 32 16 60 30 62 30 5 0 2 -399 -4 -414 -3 -9 -11
-16 -16 -16 -9 0 -106 84 -225 194 -18 16 -33 25 -33 20 0 -6 54 -59 120 -118
66 -59 118 -112 114 -117 -7 -12 -721 -12 -729 0 -3 5 49 58 115 118 66 59
120 112 120 117 0 5 -12 -1 -27 -15 -16 -14 -71 -64 -124 -112 -53 -48 -101
-87 -107 -87 -5 0 -13 7 -16 16 -8 22 -8 459 1 468 12 11 27 1 218 -149z"/>
</g>
</svg>
