<?xml version="1.0" standalone="no"?>
<!DOCTYPE svg PUBLIC "-//W3C//DTD SVG 20010904//EN"
 "http://www.w3.org/TR/2001/REC-SVG-20010904/DTD/svg10.dtd">
<svg version="1.0" xmlns="http://www.w3.org/2000/svg"
 width="200.000000pt" height="200.000000pt" viewBox="0 0 200.000000 200.000000"
 preserveAspectRatio="xMidYMid meet">
<metadata>
Created by potrace 1.15, written by Peter Selinger 2001-2017
</metadata>
<g transform="translate(0.000000,200.000000) scale(0.100000,-0.100000)"
fill="#000000" stroke="none">
<path d="M670 1473 c-46 -17 -94 -92 -124 -195 -16 -56 -16 -58 9 -113 43 -98
154 -256 239 -341 84 -85 223 -182 332 -234 l63 -31 58 17 c126 36 203 95 203
156 0 25 -15 46 -79 111 -104 107 -115 107 -216 7 l-73 -72 -49 27 c-111 60
-196 146 -269 273 l-18 32 73 74 c101 102 101 113 -6 217 -79 78 -99 88 -143
72z m127 -95 c73 -72 85 -96 60 -116 -10 -9 -23 -1 -57 33 -24 24 -47 42 -53
38 -5 -3 12 -26 37 -52 l46 -47 -55 -54 c-30 -30 -55 -61 -55 -70 0 -25 93
-161 146 -214 53 -53 189 -146 214 -146 9 0 49 34 90 75 41 41 81 75 90 75 8
0 47 -33 87 -72 55 -55 73 -79 73 -100 0 -42 -13 -41 -60 7 -24 24 -47 42 -53
38 -5 -3 12 -27 37 -52 46 -46 46 -48 27 -65 -20 -18 -144 -65 -174 -66 -25 0
-106 42 -207 108 -158 102 -330 299 -406 467 -25 55 -25 55 -9 112 21 72 40
111 73 146 42 44 67 37 149 -45z"/>
</g>
</svg>
